<svg width="19" height="21" viewBox="0 0 19 21" fill="none" xmlns="http://www.w3.org/2000/svg">
<g id="ic_attachment">
<path id="Shape" fill-rule="evenodd" clip-rule="evenodd" d="M8.85412 15.5176C7.81289 16.4423 6.17206 16.4251 5.15305 15.4663C4.11551 14.4899 4.11551 12.907 5.15305 11.9307L13.4191 4.15255C13.6266 3.95729 13.963 3.95729 14.1705 4.15255C14.378 4.34781 14.378 4.66439 14.1705 4.85966L5.9045 12.6378C5.28198 13.2236 5.28198 14.1734 5.9045 14.7592C6.52703 15.3449 7.53634 15.3449 8.15887 14.7592L16.4249 6.98098C17.8774 5.61414 17.8774 3.39806 16.4249 2.03123C14.9723 0.664395 12.6172 0.664395 11.1647 2.03123L2.89869 9.8094C0.616093 11.9573 0.616093 15.4397 2.89869 17.5876C5.18128 19.7355 8.88209 19.7355 11.1647 17.5876L17.9278 11.2236C18.1353 11.0284 18.4717 11.0284 18.6792 11.2236C18.8867 11.4189 18.8867 11.7355 18.6792 11.9307L11.9161 18.2947C9.21853 20.8331 4.84484 20.8331 2.14723 18.2947C-0.531886 15.7737 -0.550252 11.6971 2.09213 9.15472L10.4132 1.32412C12.2808 -0.433236 15.3087 -0.433236 17.1763 1.32412C19.0439 3.08148 19.0439 5.93072 17.1763 7.68808L8.85492 15.5184L8.85412 15.5176Z" fill="#92929D"/>
</g>
</svg>
