<svg width="27" height="26" viewBox="0 0 27 26" fill="none" xmlns="http://www.w3.org/2000/svg">
<g id="ic_comment">
<g id="Comments">
<g id="iconspace_Chat 3_25px">
<path id="Path" fill-rule="evenodd" clip-rule="evenodd" d="M14.0305 18.3007L9.28892 21.7014C8.21584 22.4711 6.67174 21.7521 6.66951 20.4867L6.66544 18.1707C4.45772 17.6726 2.82385 15.8024 2.82385 13.5806V7.73666C2.82385 5.13069 5.06864 3.0166 7.83977 3.0166H19.1256C21.8967 3.0166 24.1415 5.13069 24.1415 7.73666V13.5806C24.1415 16.1866 21.8967 18.3007 19.1256 18.3007H14.0305ZM8.7996 19.5349L13.0224 16.5063C13.2083 16.3729 13.4357 16.3007 13.6697 16.3007H19.1256C20.7175 16.3007 22.0097 15.0837 22.0097 13.5806V7.73666C22.0097 6.23356 20.7175 5.0166 19.1256 5.0166H7.83976C6.2478 5.0166 4.95561 6.23356 4.95561 7.73666V13.5806C4.95561 15.0555 6.20169 16.2596 7.75902 16.2997C8.33541 16.3145 8.79472 16.7567 8.79567 17.2976L8.7996 19.5349Z" fill="#92929D"/>
</g>
</g>
</g>
</svg>
