<svg width="24" height="22" viewBox="0 0 24 22" fill="none" xmlns="http://www.w3.org/2000/svg">
<g id="ic_Emoticon">
<path id="Shape" fill-rule="evenodd" clip-rule="evenodd" d="M0.0717773 11.0166C0.0717773 16.8156 5.39675 21.5166 11.9654 21.5166C18.5341 21.5166 23.8591 16.8156 23.8591 11.0166C23.8591 5.21761 18.5341 0.516602 11.9654 0.516602C5.39675 0.516602 0.0717773 5.21761 0.0717773 11.0166ZM22.7263 11.0166C22.7263 16.2633 17.9085 20.5166 11.9654 20.5166C6.02233 20.5166 1.2045 16.2633 1.2045 11.0166C1.2045 5.7699 6.02233 1.5166 11.9654 1.5166C17.9085 1.5166 22.7263 5.7699 22.7263 11.0166ZM7.10264 15.4362C6.8522 15.2708 6.80111 14.9574 6.98853 14.7363C7.17594 14.5153 7.53088 14.4701 7.78132 14.6356C10.048 16.1332 13.9528 16.1425 16.1539 14.6403C16.4014 14.4714 16.7571 14.5116 16.9484 14.7301C17.1397 14.9486 17.0941 15.2626 16.8467 15.4315C14.2388 17.2112 9.77314 17.2005 7.10264 15.4362ZM9.69996 9.0166C9.69996 9.56889 9.19282 10.0166 8.56723 10.0166C7.94165 10.0166 7.43451 9.56889 7.43451 9.0166C7.43451 8.46432 7.94165 8.0166 8.56723 8.0166C9.19282 8.0166 9.69996 8.46432 9.69996 9.0166ZM16.4963 9.0166C16.4963 9.56889 15.9892 10.0166 15.3636 10.0166C14.738 10.0166 14.2309 9.56889 14.2309 9.0166C14.2309 8.46432 14.738 8.0166 15.3636 8.0166C15.9892 8.0166 16.4963 8.46432 16.4963 9.0166Z" fill="#92929D"/>
</g>
</svg>
