<svg width="21" height="21" viewBox="0 0 21 21" fill="none" xmlns="http://www.w3.org/2000/svg">
<g id="vuesax/bold/gallery">
<g id="vuesax/bold/gallery_2">
<g id="gallery">
<path id="Vector" d="M2.59975 15.8583L2.58308 15.8749C2.35808 15.3833 2.21641 14.8249 2.15808 14.2083C2.21641 14.8166 2.37475 15.3666 2.59975 15.8583Z" fill="#1E63D1"/>
<path id="Vector_2" d="M7.94976 8.66662C9.04513 8.66662 9.9331 7.77865 9.9331 6.68328C9.9331 5.58792 9.04513 4.69995 7.94976 4.69995C6.8544 4.69995 5.96643 5.58792 5.96643 6.68328C5.96643 7.77865 6.8544 8.66662 7.94976 8.66662Z" fill="#1E63D1"/>
<path id="Vector_3" d="M13.9413 1.68323H6.958C3.92467 1.68323 2.11633 3.49156 2.11633 6.52489V13.5082C2.11633 14.4166 2.27467 15.2082 2.583 15.8749C3.29967 17.4582 4.833 18.3499 6.958 18.3499H13.9413C16.9747 18.3499 18.783 16.5416 18.783 13.5082V11.5999V6.52489C18.783 3.49156 16.9747 1.68323 13.9413 1.68323ZM17.4247 10.4332C16.7747 9.87489 15.7247 9.87489 15.0747 10.4332L11.608 13.4082C10.958 13.9666 9.908 13.9666 9.258 13.4082L8.97467 13.1749C8.383 12.6582 7.44133 12.6082 6.77467 13.0582L3.658 15.1499C3.47467 14.6832 3.36633 14.1416 3.36633 13.5082V6.52489C3.36633 4.17489 4.608 2.93323 6.958 2.93323H13.9413C16.2913 2.93323 17.533 4.17489 17.533 6.52489V10.5249L17.4247 10.4332Z" fill="#1E63D1"/>
</g>
</g>
</g>
</svg>
