<svg width="23" height="21" viewBox="0 0 23 21" fill="none" xmlns="http://www.w3.org/2000/svg">
<g id="ic_Image">
<path id="Shape" fill-rule="evenodd" clip-rule="evenodd" d="M22.5609 12.8686V16.6666C22.5609 18.5227 20.8786 20.0166 18.8167 20.0166H16.9342H16.9298H3.8399C1.778 20.0166 0.0957031 18.5227 0.0957031 16.6666V3.3666C0.0957031 1.51055 1.778 0.0166016 3.8399 0.0166016H18.8167C20.8786 0.0166016 22.5609 1.51055 22.5609 3.3666V12.8649C22.5609 12.8661 22.5609 12.8674 22.5609 12.8686ZM21.4911 13.0873L16.4488 8.7915L11.4058 13.0449L17.1697 19.0165H18.8167C20.2997 19.0165 21.4911 17.9585 21.4911 16.6665V13.0873ZM21.4911 11.7344V3.3666C21.4911 2.07463 20.2997 1.0166 18.8167 1.0166H3.83988C2.35688 1.0166 1.16546 2.07463 1.16546 3.3666V15.4616L7.38463 9.66261C7.60122 9.46065 7.95457 9.46933 8.15951 9.68166L10.6892 12.3025L16.0923 7.74538C16.2966 7.57304 16.6075 7.57376 16.8109 7.74706L21.4911 11.7344ZM15.7288 19.0167L7.74197 10.7419L1.17491 16.8654C1.28959 18.0654 2.43365 19.0167 3.83988 19.0167H15.7288ZM7.25296 6.7167C6.11383 6.7167 5.18983 5.85513 5.18983 4.7917C5.18983 3.72827 6.11383 2.8667 7.25296 2.8667C8.3921 2.8667 9.31609 3.72827 9.31609 4.7917C9.31609 5.85513 8.3921 6.7167 7.25296 6.7167ZM7.25296 5.7167C7.80188 5.7167 8.24632 5.30228 8.24632 4.7917C8.24632 4.28112 7.80188 3.8667 7.25296 3.8667C6.70405 3.8667 6.2596 4.28112 6.2596 4.7917C6.2596 5.30228 6.70405 5.7167 7.25296 5.7167Z" fill="#92929D"/>
</g>
</svg>
