<svg width="26" height="25" viewBox="0 0 26 25" fill="none" xmlns="http://www.w3.org/2000/svg">
<g id="ic_like">
<g id="Likes">
<path id="Combined Shape Copy" fill-rule="evenodd" clip-rule="evenodd" d="M12.723 4.14565L12.9517 3.9179C15.4979 1.38283 19.6383 1.38283 22.1844 3.9179C24.715 6.43742 24.715 10.5112 22.1844 13.0307L14.2035 20.9768C13.4083 21.7686 12.1007 21.7862 11.283 21.016C11.2625 20.9966 11.2625 20.9966 11.2424 20.9768L3.26156 13.0307C0.73101 10.5112 0.73101 6.43742 3.26156 3.9179C5.80773 1.38283 9.94808 1.38283 12.4942 3.9179L12.723 4.14565ZM20.7039 11.6362C22.4547 9.89304 22.4547 7.05555 20.7039 5.31234C18.9687 3.58469 16.1675 3.58469 14.4323 5.31234L13.4633 6.27714C13.0578 6.68084 12.3882 6.68084 11.9827 6.27714L11.0137 5.31234C9.27849 3.58469 6.47734 3.58469 4.74212 5.31234C2.99129 7.05555 2.99129 9.89304 4.74212 11.6362L12.723 19.5823L20.7039 11.6362Z" fill="#92929D"/>
</g>
</g>
</svg>
