<svg width="25" height="25" viewBox="0 0 25 25" fill="none" xmlns="http://www.w3.org/2000/svg">
<g id="mdi:events">
<path id="Vector" d="M21.5991 17.0166V8.0166H7.59912V17.0166H21.5991ZM21.5991 3.0166C22.1296 3.0166 22.6383 3.22732 23.0133 3.60239C23.3884 3.97746 23.5991 4.48617 23.5991 5.0166V17.0166C23.5991 17.547 23.3884 18.0557 23.0133 18.4308C22.6383 18.8059 22.1296 19.0166 21.5991 19.0166H7.59912C7.06869 19.0166 6.55998 18.8059 6.18491 18.4308C5.80983 18.0557 5.59912 17.547 5.59912 17.0166V5.0166C5.59912 4.48617 5.80983 3.97746 6.18491 3.60239C6.55998 3.22732 7.06869 3.0166 7.59912 3.0166H8.59912V1.0166H10.5991V3.0166H18.5991V1.0166H20.5991V3.0166H21.5991ZM3.59912 21.0166H17.5991V23.0166H3.59912C3.06869 23.0166 2.55998 22.8059 2.18491 22.4308C1.80983 22.0557 1.59912 21.547 1.59912 21.0166V9.0166H3.59912V21.0166ZM19.5991 15.0166H15.5991V11.0166H19.5991V15.0166Z" fill="#C37D16"/>
</g>
</svg>
