<svg width="30" height="25" viewBox="0 0 30 25" fill="none" xmlns="http://www.w3.org/2000/svg">
<g id="ic_Saved">
<g id="Saved">
<g id="Group 13 Copy">
<path id="Rectangle 92" fill-rule="evenodd" clip-rule="evenodd" d="M9.75332 1.06421H20.9063C23.4333 1.06421 25.4819 2.76979 25.4819 4.87373V20.2285C25.4819 21.2805 24.4576 22.1333 23.1941 22.1333C22.6745 22.1333 22.1705 21.986 21.7648 21.7158L15.3298 17.4291L8.89481 21.7158C7.90822 22.373 6.46852 22.2399 5.67915 21.4185C5.35457 21.0807 5.17773 20.6611 5.17773 20.2285V4.87373C5.17773 2.76979 7.22629 1.06421 9.75332 1.06421ZM9.75331 2.96899C8.4898 2.96899 7.46552 3.82178 7.46552 4.87376V20.2285L13.9005 15.9419C14.7361 15.3852 15.9235 15.3852 16.7591 15.9419L23.1941 20.2285V4.87376C23.1941 3.82178 22.1698 2.96899 20.9063 2.96899H9.75331Z" fill="#92929D"/>
</g>
</g>
</g>
</svg>
