<svg width="26" height="25" viewBox="0 0 26 25" fill="none" xmlns="http://www.w3.org/2000/svg">
<g id="ic_Share">
<g id="Share">
<g id="Group 24 Copy">
<path id="Combined Shape" fill-rule="evenodd" clip-rule="evenodd" d="M16.1302 5.0166C16.1302 2.80746 17.9554 1.0166 20.2068 1.0166C22.4583 1.0166 24.2834 2.80746 24.2834 5.0166C24.2834 7.22574 22.4583 9.0166 20.2068 9.0166C18.8153 9.0166 17.5866 8.33251 16.851 7.28837L9.77889 10.6711C9.93194 11.0915 10.0153 11.5445 10.0153 12.0166C10.0153 12.4561 9.94304 12.8791 9.80956 13.2747L16.8411 16.759C17.5756 15.7069 18.809 15.0166 20.2068 15.0166C22.4583 15.0166 24.2834 16.8075 24.2834 19.0166C24.2834 21.2257 22.4583 23.0166 20.2068 23.0166C17.9554 23.0166 16.1302 21.2257 16.1302 19.0166C16.1302 18.8948 16.1358 18.7744 16.1466 18.6554L8.69557 14.9632C7.96983 15.6173 7.00177 16.0166 5.93866 16.0166C3.68721 16.0166 1.86205 14.2257 1.86205 12.0166C1.86205 9.80746 3.68721 8.0166 5.93866 8.0166C6.96416 8.0166 7.90122 8.38814 8.61765 9.00152L16.1486 5.39936C16.1364 5.27339 16.1302 5.14571 16.1302 5.0166ZM22.2451 5.0166C22.2451 3.91203 21.3326 3.0166 20.2068 3.0166C19.0811 3.0166 18.1685 3.91203 18.1685 5.0166C18.1685 6.12117 19.0811 7.0166 20.2068 7.0166C21.3326 7.0166 22.2451 6.12117 22.2451 5.0166ZM22.2451 19.0166C22.2451 17.912 21.3326 17.0166 20.2068 17.0166C19.0811 17.0166 18.1685 17.912 18.1685 19.0166C18.1685 20.1212 19.0811 21.0166 20.2068 21.0166C21.3326 21.0166 22.2451 20.1212 22.2451 19.0166ZM5.93866 10.0166C7.06439 10.0166 7.97697 10.912 7.97697 12.0166C7.97697 13.1212 7.06439 14.0166 5.93866 14.0166C4.81293 14.0166 3.90035 13.1212 3.90035 12.0166C3.90035 10.912 4.81293 10.0166 5.93866 10.0166Z" fill="#92929D"/>
</g>
</g>
</g>
</svg>
