<svg width="25" height="21" viewBox="0 0 25 21" fill="none" xmlns="http://www.w3.org/2000/svg">
<g id="vuesax/bold/video">
<g id="vuesax/bold/video_2">
<g id="video">
<path id="Vector" d="M21.3487 5.15831C20.9387 4.97498 20.0787 4.78331 18.9087 5.46664L17.4387 6.33331C17.3287 3.74164 15.9787 2.72498 12.6987 2.72498H6.69873C3.27873 2.72498 1.94873 3.83331 1.94873 6.68331V13.35C1.94873 15.2666 3.19873 17.3083 6.69873 17.3083H12.6987C15.9787 17.3083 17.3287 16.2916 17.4387 13.7L18.9087 14.5666C19.5287 14.9333 20.0687 15.05 20.4987 15.05C20.8687 15.05 21.1587 14.9583 21.3487 14.875C21.7587 14.7 22.4487 14.225 22.4487 13.0333V6.99998C22.4487 5.80831 21.7587 5.33331 21.3487 5.15831ZM11.1987 9.49998C10.1687 9.49998 9.31873 8.79998 9.31873 7.93331C9.31873 7.06664 10.1687 6.36664 11.1987 6.36664C12.2287 6.36664 13.0787 7.06664 13.0787 7.93331C13.0787 8.79998 12.2287 9.49998 11.1987 9.49998Z" fill="#4CA989"/>
</g>
</g>
</g>
</svg>
